<svg width="1344" height="644" viewBox="0 0 1344 644" fill="none" xmlns="http://www.w3.org/2000/svg">
<g clip-path="url(#clip0_103_7)">
<rect width="1344" height="644" fill="#F6F6FF"/>
<path d="M533.773 304.092C436.426 284.353 296.51 269.406 199.162 352.768C-13.6822 525.051 575.352 606.114 951.873 502.054C1328.39 397.995 631.121 323.831 533.773 304.092Z" fill="#B3B3B3" fill-opacity="0.07"/>
<path d="M444.71 86.7181C316.49 55.7432 234.233 119.017 209.133 154.526C164.366 251.944 301.475 228.151 375.626 204.078C375.626 204.078 604.986 125.437 444.71 86.7181Z" fill="#B3B3B3" fill-opacity="0.07"/>
<path d="M1150.75 160.143C1022.53 129.169 940.277 192.442 915.177 227.951C870.41 325.37 1007.52 301.577 1081.67 277.503C1081.67 277.503 1311.03 198.862 1150.75 160.143Z" fill="#B3B3B3" fill-opacity="0.05"/>
<path d="M1608.24 411.477C1674.72 367.158 1626.01 319.264 1593.35 300.857C1564.62 300.52 1484.42 288.088 1393.41 241.057C1279.65 182.269 1141.29 300.265 1073.36 447.756C1005.44 595.248 1294.26 470.782 1392.25 427.947C1490.23 385.112 1525.15 466.876 1608.24 411.477Z" fill="#B3B3B3" fill-opacity="0.05"/>
<path d="M46.1646 585.675C-15.9457 559.605 -108.109 545.174 -195.464 652.246C-215.366 674.901 -220.789 770.816 -83.2652 973.227C88.64 1226.24 700.927 922.718 902.485 866.389C1104.04 810.06 700.927 543.777 494.16 652.246C287.393 760.714 108.275 611.745 46.1646 585.675Z" fill="#C4C4C4" fill-opacity="0.08"/>
<path d="M1140.53 364.897C1112.47 390.675 1147.61 412.55 1168.69 420.265C1228.07 436.214 1221.7 404.995 1211.1 387.392C1211.1 387.392 1175.62 332.675 1140.53 364.897Z" fill="white" fill-opacity="0.5"/>
<path d="M1267.8 375.554C1219.28 387.227 1226.3 416.866 1235.87 430.227C1268.58 463.136 1294.35 435.491 1303.15 417.555C1303.15 417.555 1328.44 360.962 1267.8 375.554Z" fill="white" fill-opacity="0.5"/>
<g opacity="0.1">
<path d="M115.251 545.032L135.569 545.914L135.108 556.043L122.507 555.497L117.559 571.385L101.094 570.67L96.1429 586.564L79.6773 585.85L74.7225 601.743L54.3934 600.872L54.8505 590.742L67.4677 591.285L72.4256 575.386L88.8866 576.101L93.8394 560.208L110.303 560.922L115.251 545.032Z" fill="#150D11"/>
<path d="M115.25 545.032L135.568 545.914L135.107 556.043L122.506 555.497L117.558 571.385L101.092 570.671L96.1418 586.564L79.6762 585.85L74.7214 601.743L54.3923 600.872L54.8494 590.743L67.4665 591.285L72.4245 575.386L88.8855 576.101L93.8382 560.208L110.302 560.922L115.25 545.032Z" stroke="#150D11" stroke-width="4" stroke-miterlimit="10" stroke-linecap="round" stroke-linejoin="round"/>
<path d="M118.775 550.178L139.402 551.106L138.956 561.238L126.164 560.661L121.178 576.543L104.465 575.794L99.4729 591.682L82.7579 590.931L77.7619 606.818L57.1291 605.902L57.5683 595.769L70.3769 596.338L75.3736 580.446L92.0861 581.199L97.0757 565.311L113.788 566.064L118.775 550.178Z" fill="#FED22C"/>
<path d="M118.775 550.178L139.402 551.106L138.956 561.238L126.164 560.661L121.178 576.543L104.464 575.794L99.4727 591.682L82.7577 590.931L77.7617 606.818L57.129 605.902L57.5681 595.769L70.3767 596.338L75.3734 580.446L92.0859 581.199L97.0756 565.311L113.788 566.065L118.775 550.178Z" stroke="#150D11" stroke-width="4" stroke-miterlimit="10" stroke-linecap="round" stroke-linejoin="round"/>
</g>
<g opacity="0.1">
<path d="M1319.64 116.87L1334.06 141.152L1321.51 148.628L1312.57 133.569L1289.66 140.393L1277.97 120.717L1255.06 127.542L1243.37 107.865L1220.46 114.685L1206.01 90.4L1218.56 82.9182L1227.52 97.9919L1250.45 91.171L1262.13 110.843L1285.04 104.021L1296.73 123.695L1319.64 116.87Z" fill="#150D11"/>
<path d="M1319.64 116.868L1334.06 141.15L1321.51 148.626L1312.57 133.567L1289.66 140.391L1277.97 120.715L1255.06 127.54L1243.37 107.863L1220.46 114.683L1206.01 90.3982L1218.56 82.9165L1227.52 97.9902L1250.44 91.1693L1262.13 110.842L1285.04 104.019L1296.73 123.693L1319.64 116.868Z" stroke="#150D11" stroke-width="4" stroke-miterlimit="10" stroke-linecap="round" stroke-linejoin="round"/>
<path d="M1316.13 125.031L1330.73 149.707L1318.19 157.203L1309.14 141.899L1286.21 148.673L1274.37 128.682L1251.44 135.454L1239.6 115.459L1216.66 122.226L1202.04 97.5531L1214.58 90.0484L1223.65 105.365L1246.6 98.5955L1258.43 118.589L1281.36 111.814L1293.2 131.808L1316.13 125.031Z" fill="#FED22C"/>
<path d="M1316.13 125.031L1330.73 149.707L1318.19 157.203L1309.14 141.899L1286.21 148.673L1274.37 128.682L1251.44 135.454L1239.6 115.459L1216.66 122.226L1202.04 97.553L1214.58 90.0483L1223.65 105.365L1246.6 98.5954L1258.43 118.589L1281.36 111.814L1293.2 131.808L1316.13 125.031Z" stroke="#150D11" stroke-width="4" stroke-miterlimit="10" stroke-linecap="round" stroke-linejoin="round"/>
</g>
<g opacity="0.08">
<path d="M2.04616 187.487C-9.26849 187.487 -18.4409 178.316 -18.4409 167C-18.4409 155.686 -9.26849 146.513 2.04616 146.513C13.3581 146.513 22.5305 155.686 22.5305 167C22.5305 178.316 13.3581 187.487 2.04616 187.487ZM2.04616 128.788C-19.0553 128.788 -36.1631 145.895 -36.1631 167C-36.1631 188.104 -19.0553 205.212 2.04616 205.212C23.1449 205.212 40.2527 188.104 40.2527 167C40.2527 145.895 23.1449 128.788 2.04616 128.788Z" fill="#150D11"/>
<path d="M2.04616 187.487C-9.26849 187.487 -18.4409 178.316 -18.4409 167C-18.4409 155.686 -9.26849 146.513 2.04616 146.513C13.3581 146.513 22.5305 155.686 22.5305 167C22.5305 178.316 13.3581 187.487 2.04616 187.487ZM2.04616 128.788C-19.0553 128.788 -36.1631 145.895 -36.1631 167C-36.1631 188.104 -19.0553 205.211 2.04616 205.211C23.1449 205.211 40.2527 188.104 40.2527 167C40.2527 145.895 23.1449 128.788 2.04616 128.788Z" stroke="#150D11" stroke-width="4" stroke-miterlimit="10" stroke-linecap="round" stroke-linejoin="round"/>
<path d="M-8.1356 177.386C-19.4503 177.386 -28.6227 168.212 -28.6227 156.899C-28.6227 145.585 -19.4503 136.412 -8.1356 136.412C3.17631 136.412 12.3487 145.585 12.3487 156.899C12.3487 168.212 3.17631 177.386 -8.1356 177.386ZM-8.1356 118.687C-29.2371 118.687 -46.3448 135.794 -46.3448 156.899C-46.3448 178.003 -29.2371 195.11 -8.1356 195.11C12.9631 195.11 30.0709 178.003 30.0709 156.899C30.0709 135.794 12.9631 118.687 -8.1356 118.687Z" fill="#FED22C"/>
<path d="M-8.1356 177.386C-19.4503 177.386 -28.6227 168.212 -28.6227 156.899C-28.6227 145.585 -19.4503 136.412 -8.1356 136.412C3.17631 136.412 12.3487 145.585 12.3487 156.899C12.3487 168.212 3.17631 177.386 -8.1356 177.386ZM-8.1356 118.687C-29.2371 118.687 -46.3448 135.794 -46.3448 156.899C-46.3448 178.003 -29.2371 195.11 -8.1356 195.11C12.9631 195.11 30.0709 178.003 30.0709 156.899C30.0709 135.794 12.9631 118.687 -8.1356 118.687Z" stroke="#150D11" stroke-width="4" stroke-miterlimit="10" stroke-linecap="round" stroke-linejoin="round"/>
</g>
<g opacity="0.08">
<path d="M1228.08 492.281C1216.76 492.281 1207.59 483.11 1207.59 471.793C1207.59 460.48 1216.76 451.306 1228.08 451.306C1239.39 451.306 1248.56 460.48 1248.56 471.793C1248.56 483.11 1239.39 492.281 1228.08 492.281ZM1228.08 433.582C1206.98 433.582 1189.87 450.689 1189.87 471.793C1189.87 492.898 1206.98 510.005 1228.08 510.005C1249.18 510.005 1266.28 492.898 1266.28 471.793C1266.28 450.689 1249.18 433.582 1228.08 433.582Z" fill="#150D11"/>
<path d="M1228.08 492.281C1216.76 492.281 1207.59 483.11 1207.59 471.794C1207.59 460.48 1216.76 451.307 1228.08 451.307C1239.39 451.307 1248.56 460.48 1248.56 471.794C1248.56 483.11 1239.39 492.281 1228.08 492.281ZM1228.08 433.582C1206.98 433.582 1189.87 450.689 1189.87 471.794C1189.87 492.898 1206.98 510.005 1228.08 510.005C1249.18 510.005 1266.28 492.898 1266.28 471.794C1266.28 450.689 1249.18 433.582 1228.08 433.582Z" stroke="#150D11" stroke-width="4" stroke-miterlimit="10" stroke-linecap="round" stroke-linejoin="round"/>
<path d="M1217.9 482.18C1206.58 482.18 1197.41 473.006 1197.41 461.693C1197.41 450.379 1206.58 441.206 1217.9 441.206C1229.21 441.206 1238.38 450.379 1238.38 461.693C1238.38 473.006 1229.21 482.18 1217.9 482.18ZM1217.9 423.481C1196.79 423.481 1179.69 440.588 1179.69 461.693C1179.69 482.797 1196.79 499.904 1217.9 499.904C1238.99 499.904 1256.1 482.797 1256.1 461.693C1256.1 440.588 1238.99 423.481 1217.9 423.481Z" fill="#FED22C"/>
<path d="M1217.9 482.18C1206.58 482.18 1197.41 473.006 1197.41 461.693C1197.41 450.379 1206.58 441.205 1217.9 441.205C1229.21 441.205 1238.38 450.379 1238.38 461.693C1238.38 473.006 1229.21 482.18 1217.9 482.18ZM1217.9 423.481C1196.79 423.481 1179.69 440.588 1179.69 461.693C1179.69 482.797 1196.79 499.904 1217.9 499.904C1238.99 499.904 1256.1 482.797 1256.1 461.693C1256.1 440.588 1238.99 423.481 1217.9 423.481Z" stroke="#150D11" stroke-width="4" stroke-miterlimit="10" stroke-linecap="round" stroke-linejoin="round"/>
</g>
<g opacity="0.1">
<path d="M1322.15 610.298L1068.19 487.256L1084.4 702.546L1322.15 610.298Z" fill="url(#paint0_linear_103_7)"/>
<path d="M1068.2 487.253L1042.15 599.131L1058.12 814.001L1084.4 702.544L1068.2 487.253Z" fill="url(#paint1_linear_103_7)"/>
<path d="M1084.4 702.55L1058.12 814.003L1295.69 722.423L1322.16 610.303L1084.4 702.55Z" fill="url(#paint2_linear_103_7)"/>
</g>
</g>
<defs>
<linearGradient id="paint0_linear_103_7" x1="1213.05" y1="673.42" x2="1096.26" y2="471.166" gradientUnits="userSpaceOnUse">
<stop stop-color="#7E8FFC"/>
<stop offset="0.0882911" stop-color="#8990FC"/>
<stop offset="0.5018" stop-color="#B894FC"/>
<stop offset="0.8191" stop-color="#D597FC"/>
<stop offset="1" stop-color="#E098FC"/>
</linearGradient>
<linearGradient id="paint1_linear_103_7" x1="1390.03" y1="372.178" x2="620.1" y2="1028.18" gradientUnits="userSpaceOnUse">
<stop stop-color="#7E8FFC"/>
<stop offset="0.0882911" stop-color="#8990FC"/>
<stop offset="0.5018" stop-color="#B894FC"/>
<stop offset="0.8191" stop-color="#D597FC"/>
<stop offset="1" stop-color="#E098FC"/>
</linearGradient>
<linearGradient id="paint2_linear_103_7" x1="1450.65" y1="561.881" x2="1014.32" y2="813.763" gradientUnits="userSpaceOnUse">
<stop stop-color="#7E8FFC"/>
<stop offset="0.0882911" stop-color="#8990FC"/>
<stop offset="0.5018" stop-color="#B894FC"/>
<stop offset="0.8191" stop-color="#D597FC"/>
<stop offset="1" stop-color="#E098FC"/>
</linearGradient>
<clipPath id="clip0_103_7">
<rect width="1344" height="644" fill="white"/>
</clipPath>
</defs>
</svg>
